# xmcd CD database file
#
# Track frame offsets:
#	150
#	18960
#	33572
#	53366
#	85559
#	103794
#	129642
#	168789
#	202523
#	230590
#	253646
#	269198
#	277443
#	296945
#	320606
#
# Disc length: 4676 seconds
#
# Revision: 0
# Processed by: cddbd v1.4PL0 Copyright (c) Steve Scherf et al.
# Submitted via: Feurio! 1.63 - http://www.feurio.com
#
DISCID=d812420f
DTITLE=Tom Waits - Tales for the Audience Part 1
DYEAR=1999
DGENRE=Blues
TTITLE0=Black Rider
TTITLE1=Jockey full of Burbon
TTITLE2=Jesus gonna be here
TTITLE3=Get behind the Mule
TTITLE4=Walk away
TTITLE5=Chocolate Jesus
TTITLE6=Hold on
TTITLE7=Eyeball Kid
TTITLE8=What's he Building in there
TTITLE9=Tango til they sore
TTITLE10=A little Rain
TTITLE11=Johnsburg, Illinois
TTITLE12=Invitation to the Blues
TTITLE13=Innocent when You dream
TTITLE14=16 Shells from a thirty ought six
EXTD=Chocolate Jesus Live in Berlin 1999
EXTT0=
EXTT1=
EXTT2=
EXTT3=
EXTT4=
EXTT5=
EXTT6=
EXTT7=
EXTT8=
EXTT9=
EXTT10=
EXTT11=
EXTT12=
EXTT13=
EXTT14=
PLAYORDER=
